<svg id="Layer_1" data-name="Layer 1" xmlns="http://www.w3.org/2000/svg" viewBox="0 0 80 80"><title>Apartments</title><path d="M69.56,69.61c1,0,1.79,0,2.63,0a2.69,2.69,0,1,1,0,5.37c-3.08,0-6.16,0-9.24,0H8.37a5.7,5.7,0,0,1-1.17-.06,2.71,2.71,0,0,1-2.12-2.84A2.67,2.67,0,0,1,7.7,69.62c.89,0,1.78,0,2.75,0V8.32C10.45,6,11.39,5,13.74,5H44.89c2.16,0,3.17,1,3.17,3.19v7.58H66.39c2.16,0,3.17,1,3.17,3.2V69.61ZM48.06,21.19V60.81c0,.28,0,.56,0,.84a2.68,2.68,0,0,1-5.3.47A5.71,5.71,0,0,1,42.69,61V10.43H15.87V69.55h5.32V61.84a2.7,2.7,0,0,1,3-3H34.39a2.69,2.69,0,0,1,2.92,2.93c0,2.3,0,4.6,0,6.9v.89H64.13V21.19ZM31.9,64.29H26.63v5.28H31.9Z"/><path d="M21.23,21.09V15.81H26.5v5.28Z"/><path d="M37.24,21.13H32v-5.3h5.24Z"/><path d="M21.23,31.87V26.6h5.28v5.27Z"/><path d="M37.25,31.89H32V26.61h5.26Z"/><path d="M58.78,26.6v5.27h-5.3V26.6Z"/><path d="M26.55,37.38v5.25h-5.3V37.38Z"/><path d="M32,42.64V37.37h5.3v5.27Z"/><path d="M58.77,37.35v5.28H53.49V37.35Z"/><path d="M26.51,53.42H21.24V48.14h5.27Z"/><path d="M37.28,48.14v5.27H32V48.14Z"/><path d="M58.76,53.42H53.5V48.13h5.26Z"/><path d="M53.48,58.88h5.27v5.29H53.48Z"/></svg>