<?xml version="1.0" encoding="UTF-8"?>
<svg id="Layer_1" data-name="Layer 1" xmlns="http://www.w3.org/2000/svg" viewBox="0 0 486 300">
  <g id="LnBkSv">
    <g>
      <path d="M5.86,132.44c8.39-.17,16.79-.3,25.18-.53,15.88-.44,29.99-4.93,42.32-15.71,12.9-11.28,26.69-21.55,40.28-32.02,5.3-4.08,11.3-7.38,18.15-7.68,8.41-.37,17.02,.88,19.14,10.67,1.46,6.73,5.62,9.23,10.9,11.35,25.32,10.19,51.79,11.23,78.54,9.4,8.02-.55,15.97-2.14,23.99-2.73,12.06-.89,23.62,.93,30.34,12.34,6.8,11.54,4.06,22.95-3.15,33.54-1.77,2.6-3.43,5.48-5.79,7.44-6.17,5.12-7.52,10.97-5.21,18.61,2.45,8.11,.98,16.77-3.84,23.15-6.25,8.28-8.6,16.91-8.92,26.89-.23,7.2-3.31,14.13-8.72,18.63-8.38,6.96-12.71,16.08-17.8,25.27-9.12,16.48-24.94,22.85-43.08,23.71-29.78,1.4-58.61-3.7-86.55-13.83-8.88-3.22-17.71-6.68-26.27-10.67-25.25-11.75-51.59-17.64-79.5-15.84v-122Z"/>
      <path d="M479.14,56.72c-4.98,5.08-6.36,11.17-6.32,18.22,.08,15.26-2.34,17.47-17.84,17.51-31.53,.09-63.07,.33-94.59-.16-9.06-.14-11.89,1.95-11.43,11.65,1.68,35.3-17.96,66.84-48.44,80.46-7.15,3.2-9.79,2.83-11.47-6.16-2.25-12.02,2.87-19.19,11.03-26.01,15.3-12.79,22.43-29.02,20.92-49.13-.55-7.41-3.75-9.76-11.02-10.85-14.57-2.18-27.82,6.12-41.62,4.76-14.37-1.41-27.04,5.81-41.31,4.63-18.18-1.5-36.14-2.96-53.9-7.7-12.64-3.38-17.96-11.31-18.3-23.24-.45-15.75-.15-31.53-.15-47.29,0-7.4,4.06-10.8,11.16-11.02,3.5-.11,7.01-.11,10.51-.11,78.48,0,156.96,0,235.44-.01,6.24,0,12.48,.7,17.57-4.7,2.78-2.95,8.13-3.17,10.96-1.53,12.77,7.39,31.67,3.73,38.79,21.25v29.45Z"/>
    </g>
  </g>
</svg>