<svg id="Layer_1" data-name="Layer 1" xmlns="http://www.w3.org/2000/svg" viewBox="0 0 80 80"><defs><style>.cls-1{fill:#fff;}</style></defs><title>Church</title><path class="cls-1" d="M61.38,74.83c0-.2,0-.32,0-.44,0-9.73,0-19.46,0-29.18a1.4,1.4,0,0,0-.5-.94C54.12,38.63,47.35,33,40.59,27.39c-.48-.4-.75-.37-1.21,0q-10.11,8.42-20.25,16.8a1.37,1.37,0,0,0-.56,1.17q0,14.32,0,28.66v.78H32.65V74c0-4.06,0-8.12,0-12.18a7.34,7.34,0,0,1,14.66.54c0,3.89,0,7.77,0,11.66v.81ZM38.29,12.13c0,1.61,0,3.12,0,4.63a1.33,1.33,0,0,1-.55,1.18q-14,11.52-28,23.08c-.2.16-.38.34-.61.54l3.61,4.38L40,23.48,67.25,46l3.62-4.42L62,34.2,42.23,17.91c-.21-.17-.5-.43-.5-.65,0-1.68,0-3.37,0-5.15h5.15V8.7H41.67V5H38.28V8.73H33.13v3.4ZM77.5,74.92a4.12,4.12,0,0,0,0-.42c0-4.57,0-9.14,0-13.71A.84.84,0,0,0,77,60L64.52,52.76c-.19-.11-.39-.2-.63-.33V74.92Z"/><path d="M2.45,60.18a6.51,6.51,0,0,0,.72-.31q6.07-3.52,12.16-7l.77-.44V75H3.32c-.29,0-.58,0-.87,0Z"/><path d="M61.38,74.83H47.33V74c0-3.89,0-7.77,0-11.66a7.34,7.34,0,0,0-14.66-.54c0,4.06,0,8.12,0,12.18v.82H18.58V74q0-14.33,0-28.66a1.37,1.37,0,0,1,.56-1.17q10.14-8.39,20.25-16.8c.46-.39.73-.42,1.21,0C47.35,33,54.12,38.63,60.88,44.27a1.4,1.4,0,0,1,.5.94c0,9.72,0,19.45,0,29.18C61.4,74.51,61.39,74.63,61.38,74.83Z"/><path d="M38.29,12.13H33.13V8.73h5.15V5h3.39V8.7h5.18v3.41H41.7c0,1.78,0,3.47,0,5.15,0,.22.29.48.5.65L62,34.2l8.9,7.33L67.25,46,40,23.48,12.74,45.94,9.13,41.56c.23-.2.41-.38.61-.54q14-11.55,28-23.08a1.33,1.33,0,0,0,.55-1.18C38.27,15.25,38.29,13.74,38.29,12.13Z"/><path d="M77.5,74.92H63.89V52.43c.24.13.44.22.63.33L77,60a.84.84,0,0,1,.55.82c0,4.57,0,9.14,0,13.71A4.12,4.12,0,0,1,77.5,74.92Z"/></svg>