<svg id="Layer_1" data-name="Layer 1" xmlns="http://www.w3.org/2000/svg" viewBox="0 0 80 80"><title>Complex</title><path d="M46.43,5a2.06,2.06,0,0,1,1.2,2.15q0,25.64,0,51.27c0,1.1-.32,1.62-1,1.63s-1-.49-1-1.6V7.09H34.42v9.57c0,.18,0,.36,0,.54a1,1,0,0,1-1,1.06,1,1,0,0,1-1-1.07c0-1,0-2,0-3h-17V25.07h1.7c0-1.21,0-2.39,0-3.57,0-1.71.47-2.17,2.19-2.18h5.53c1.35,0,1.91.56,1.92,1.91s0,2.54,0,3.86c.45,0,.81,0,1.17,0a1.49,1.49,0,0,1,1.61,1.56q.06,1.71,0,3.42c0,1.06-.64,1.55-1.83,1.55-3.66,0-7.32,0-11,0H15.34V43H17c0-.23,0-.47,0-.71,0-1.07,0-2.15,0-3.22a1.6,1.6,0,0,1,1.76-1.79c2.05,0,4.09,0,6.14,0A1.58,1.58,0,0,1,26.69,39c0,1.09,0,2.18,0,3.28v.81c.46,0,.85,0,1.23,0a1.47,1.47,0,0,1,1.55,1.55q.06,1.71,0,3.42c0,1-.63,1.55-1.76,1.55H15.35V61h1.71V58.09c0-.37,0-.73,0-1.09a1.62,1.62,0,0,1,1.78-1.79q3,0,6.07,0a1.63,1.63,0,0,1,1.79,1.84c0,1.05,0,2.1,0,3.15V61c.47,0,.85,0,1.23,0a1.45,1.45,0,0,1,1.55,1.54c0,1.13,0,2.28,0,3.41s-.62,1.54-1.76,1.54H15.34v5.4h17V22.05a5.57,5.57,0,0,1,0-.82,1,1,0,0,1,2,0,4.36,4.36,0,0,1,0,.81V72.9H45.57v-.72c0-2.82,0-5.65,0-8.47,0-.25-.08-.57,0-.74a2,2,0,0,1,.88-.79.81.81,0,0,1,1,.66,3.14,3.14,0,0,1,.09.87v9.2h17v-5.4H52.43c-1.46,0-1.92-.46-1.92-1.91,0-1,0-1.91,0-2.87,0-1.18.52-1.69,1.71-1.71h1V58c0-.34,0-.69,0-1A1.6,1.6,0,0,1,55,55.22q3.14-.06,6.27,0A1.6,1.6,0,0,1,62.93,57c0,1.29,0,2.59,0,3.93h1.7V49.57H52.4c-1.41,0-1.89-.48-1.89-1.89,0-1,0-1.92,0-2.87,0-1.21.54-1.74,1.75-1.77h1V39.36c0-1.54.56-2.09,2.1-2.09,1.86,0,3.73,0,5.59,0,1.41,0,2,.58,2,2V43h1.7V31.63H52.5c-1.52,0-2-.47-2-2,0-.94,0-1.87,0-2.8a1.52,1.52,0,0,1,1.72-1.73h1c0-1.15,0-2.26,0-3.36a5.77,5.77,0,0,1,0-1,1.48,1.48,0,0,1,1.52-1.38c2.19,0,4.37,0,6.55,0,1,0,1.54.68,1.55,1.78,0,1.29,0,2.59,0,3.93h1.7V14.16c-.24,0-.51,0-.77,0H51.59c-.2,0-.41,0-.61,0A1.06,1.06,0,0,1,49.9,13,1,1,0,0,1,51,12.08q7,0,13.91,0a1.8,1.8,0,0,1,1.81,2.05c0,3,0,5.93,0,8.89V25.1c.35,0,.66,0,1,0a1.45,1.45,0,0,1,1.59,1.51q.08,1.74,0,3.48a1.46,1.46,0,0,1-1.56,1.54c-.29,0-.59,0-.93,0V43c.43,0,.86,0,1.28.11a1.21,1.21,0,0,1,1.15,1.15c0,1.36.07,2.73,0,4.09,0,.76-.6,1.16-1.41,1.21-.33,0-.67,0-1,0V61c.42,0,.8,0,1.18.06a1.24,1.24,0,0,1,1.27,1.19,38.5,38.5,0,0,1,0,4,1.29,1.29,0,0,1-1.37,1.25c-.33,0-.67,0-1.09,0,0,.29,0,.53,0,.77,0,1.41,0,2.83,0,4.24A2.35,2.35,0,0,1,65.4,75H14.64a2.17,2.17,0,0,1-1.4-2.39c.06-.79,0-1.59,0-2.39V67.51h-.89c-1.14,0-1.67-.54-1.68-1.68s0-2.14,0-3.21A1.46,1.46,0,0,1,12.24,61c.32,0,.65,0,1,0V49.6l-.64,0c-1.43,0-1.9-.49-1.9-2,0-.93,0-1.87,0-2.8A1.55,1.55,0,0,1,12.42,43l.79,0V31.63c-.27,0-.49,0-.71,0-1.29,0-1.82-.55-1.82-1.84q0-1.5,0-3a1.52,1.52,0,0,1,1.69-1.69h.88v-.86q0-4.92,0-9.84c0-1.71.62-2.33,2.34-2.33H32.37c0-1.75,0-3.39,0-5A1.91,1.91,0,0,1,33.6,5Zm-19,22.2H12.77v2.34H27.41Zm0,18H12.77v2.33H27.41ZM67.23,27.2H52.6v2.33H67.23ZM52.58,47.47H67.21V45.15H52.58ZM27.41,63.11H12.76v2.3H27.41Zm25.18,2.3H67.22V63.1H52.59ZM60.85,61V57.31h-5.5V61ZM19.14,57.3V61h5.45V57.3ZM55.36,21.41v3.65h5.49V21.41ZM60.85,43V39.37H55.36V43Zm-36.24-18V21.42H19.15v3.65Zm0,14.29H19.15V43h5.47Z"/><path d="M36.71,59.07c0-1.3,0-2.6,0-3.89,0-.9.35-1.25,1.24-1.25,1.36,0,2.72,0,4.09,0,.88,0,1.24.36,1.24,1.25,0,2.57,0,5.15,0,7.72,0,.87-.37,1.26-1.24,1.27-1.37,0-2.73,0-4.1,0-.87,0-1.22-.38-1.23-1.27C36.7,61.62,36.71,60.35,36.71,59.07Zm4.48,3V56H38.8v6.06Z"/><path d="M36.71,40.19c0-1.28,0-2.55,0-3.83,0-.93.35-1.27,1.27-1.28h4c.91,0,1.28.37,1.29,1.29q0,3.85,0,7.71c0,.87-.37,1.24-1.25,1.25q-2,0-4.08,0c-.88,0-1.23-.37-1.24-1.26C36.7,42.78,36.71,41.48,36.71,40.19Zm4.52-3H38.79v6h2.44Z"/><path d="M43.29,21.34v3.83c0,1-.36,1.31-1.33,1.31h-4c-.86,0-1.23-.35-1.23-1.19q0-3.93,0-7.86a1,1,0,0,1,1.18-1.19c1.4,0,2.82,0,4.22,0a1.06,1.06,0,0,1,1.17,1.2C43.3,18.74,43.29,20,43.29,21.34Zm-2.07-3H38.81v6h2.41Z"/></svg>