<svg id="Layer_1" data-name="Layer 1" xmlns="http://www.w3.org/2000/svg" viewBox="0 0 80 80"><defs><style>.cls-1{fill:none;}.cls-2{fill:#010101;}</style></defs><title>fire station</title><path class="cls-1" d="M40,32.69H20c-4.17,0-8.35,0-12.52,0-.67,0-1,.22-.92.9s0,1.41,0,2.12.24.89.88.87c1.39,0,2.78,0,4.18,0,.94,0,1,.07,1,1,0,1.94,0,3.87,0,5.8q0,12.63,0,25.26c0,.95-.06,1-1,1-1.36,0-2.73,0-4.1,0a.83.83,0,0,0-.95.89c0,.76,0,1.51,0,2.27C6.58,75,6.59,75,8.8,75H72.12c1,0,1.27-.25,1.29-1.25s0-2,0-3-.27-1.13-1.16-1.13h-3.6c-.94,0-1-.07-1-1,0-2.57,0-5.14,0-7.71V37.63c0-1,.05-1.06,1.09-1.07,1.3,0,2.59,0,3.89,0,.57,0,.83-.22.81-.79s0-1.23,0-1.84c0-1.25,0-1.25-1.26-1.25Zm0-1.58H72.26c1.11,0,1.16-.06,1.16-1.16V22c0-.94-.06-1-1-1H63.29c-1,0-1,0-1-1.05V14.23c0-.93,0-1-.95-1H54.17a1.37,1.37,0,0,1-1.35-.79A14.07,14.07,0,0,0,39.55,5a14,14,0,0,0-12.7,7.6,1.14,1.14,0,0,1-1.17.67c-2.36,0-4.72,0-7.08,0-.64,0-.87.26-.86.89,0,1.84,0,3.68,0,5.51,0,1.27,0,1.28-1.24,1.28H7.58c-.93,0-1,.06-1,1,0,2.67,0,5.33,0,8,0,1.11,0,1.14,1.17,1.14Z"/><path class="cls-2" d="M40,32.69H72.16c1.26,0,1.26,0,1.26,1.25,0,.61,0,1.23,0,1.84s-.24.8-.81.79c-1.3,0-2.59,0-3.89,0-1,0-1.09.06-1.09,1.07V60.91c0,2.57,0,5.14,0,7.71,0,.94.07,1,1,1h3.6c.89,0,1.14.24,1.16,1.13s0,2,0,3S73.13,75,72.12,75H8.8c-2.21,0-2.22,0-2.22-2.21,0-.76,0-1.51,0-2.27a.83.83,0,0,1,.95-.89c1.37,0,2.74,0,4.1,0,.94,0,1-.06,1-1q0-12.63,0-25.26c0-1.93,0-3.86,0-5.8,0-.92-.08-1-1-1-1.4,0-2.79,0-4.18,0-.64,0-.9-.24-.88-.87s0-1.42,0-2.12.25-.9.92-.9c4.17,0,8.35,0,12.52,0Zm0,3.87H18.76c-1,0-1,.06-1,1v31c0,1.06,0,1.08,1.07,1.08H27c.31,0,.51-.09.41-.47a7.4,7.4,0,0,1-.09-1.76c0-1.11,0-1.12-1.09-1.13-1.71,0-1.71,0-1.66-1.75s.05-1.73,1.74-1.84c.45,0,.72-.17.72-.66V53.74c0-.44-.2-.65-.65-.64s-1,0-1.48,0-.93-.24-.93-.87v-4.6c0-.53.28-.76.8-.76s1,0,1.55,0,.74-.22.71-.73c0-.18,0-.37,0-.56a2,2,0,0,1,2.18-2.16H50.66a1.83,1.83,0,0,1,2,1.84,7,7,0,0,1,0,.92c0,.48.21.68.69.68s1.17,0,1.76,0,.76.23.76.73c0,1.58,0,3.16,0,4.74,0,.52-.29.76-.81.75s-1,0-1.56,0-.84.23-.83.84q0,3.91,0,7.85c0,.66.23.92.91.92,1.4,0,1.4,0,1.4,1.45v.21c0,1.79,0,1.8-1.74,1.91-.51,0-.72.23-.71.74a7,7,0,0,1,0,1.83c-.17.76.16.8.75.8,2.6,0,5.19,0,7.78,0,1.25,0,1.25,0,1.25-1.26V37.81c0-1.23,0-1.24-1.27-1.24ZM33.69,52.37h0c1.46,0,2.92,0,4.38,0,.77,0,1-.22,1-1,0-1.75,0-3.49,0-5.24,0-.86-.29-1.15-1.15-1.15H29.42c-.91,0-1.22.34-1.23,1.25,0,1.61,0,3.21,0,4.81,0,1.12.17,1.3,1.32,1.3C30.91,52.38,32.3,52.37,33.69,52.37Zm12.52,0c1.46,0,2.92,0,4.38,0,.82,0,1.07-.26,1.08-1.06,0-1.72,0-3.44,0-5.16,0-.79-.33-1.13-1.12-1.14H41.91c-.81,0-1.1.3-1.11,1.12,0,1.75,0,3.49,0,5.24,0,.79.22,1,1,1C43.29,52.38,44.75,52.37,46.21,52.37ZM39.86,69.63h0c2.07,0,4.15,0,6.22,0,.21,0,.67.12.54-.28A8.34,8.34,0,0,1,46.45,67c0-.49-.23-.68-.69-.68H33.81c-.51,0-.7.26-.69.75a9.35,9.35,0,0,1,0,1.91c-.13.64.12.71.64.7ZM39.5,56.88h3.89c1.49,0,1.49,0,1.48-1.53,0-.89-.07-1-1-1h-8c-1.7,0-1.69,0-1.66,1.7,0,.58.22.81.79.8C36.54,56.87,38,56.88,39.5,56.88Zm.08,2.87H44.1c.54,0,.8-.2.76-.75,0-.19,0-.38,0-.57,0-.91,0-1-1-1H35.7c-1.48,0-1.46,0-1.44,1.5,0,.57.21.8.79.79C36.56,59.73,38.07,59.75,39.58,59.75Zm0,2.93c1.51,0,3,0,4.52,0,.68,0,.85-.31.82-.91s.13-1.17-.78-1.17q-4.52,0-9,0c-.91,0-.77.6-.8,1.16s.14.92.82.91C36.57,62.66,38.05,62.68,39.53,62.68Zm10.08-1.34c-.35,0-.72.06-.71.66s.48.67,1,.68.82-.11.8-.7S50.18,61.35,49.61,61.34ZM29.78,62.67c.49,0,.89,0,.89-.66s-.37-.68-.84-.67-.91,0-.92.64S29.28,62.71,29.78,62.67Z"/><path class="cls-2" d="M40,31.11H7.75c-1.12,0-1.16,0-1.17-1.14,0-2.67,0-5.33,0-8,0-.95.06-1,1-1H16.5c1.24,0,1.24,0,1.24-1.28,0-1.83,0-3.67,0-5.51,0-.63.22-.89.86-.89,2.36,0,4.72,0,7.08,0a1.14,1.14,0,0,0,1.17-.67A14,14,0,0,1,39.55,5a14.07,14.07,0,0,1,13.27,7.48,1.37,1.37,0,0,0,1.35.79h7.14c.91,0,.94,0,.95,1v5.66c0,1,0,1.05,1,1.05h9.12c1,0,1,.07,1,1v8c0,1.1,0,1.16-1.16,1.16ZM50.69,18.53a4.55,4.55,0,0,0-.57-1.71,8.24,8.24,0,0,1-1-3.43c-.06-1.08-.91-1.43-1.79-.79-.65.47-1.28,1-1.91,1.46s-1,.81-1.58,1.2c-.11.09-.24.17-.38.05s0-.27,0-.39l.38-.51c.7-.91,1.43-1.81,2.11-2.74.56-.76.25-1.66-.65-1.68a10.39,10.39,0,0,1-4.15-1.26,2.74,2.74,0,0,0-2.52,0A10,10,0,0,1,34.52,10a1,1,0,0,0-.71,1.63c.16.24.34.46.51.68.64.82,1.28,1.64,1.9,2.47.12.15.36.34.14.54s-.39-.05-.55-.16a3.69,3.69,0,0,1-.4-.29c-1-.77-2-1.55-3-2.29-.77-.57-1.64-.27-1.69.62a9.32,9.32,0,0,1-1.14,3.89,3.15,3.15,0,0,0,0,3.18,7.28,7.28,0,0,1,1,3.41,1.12,1.12,0,0,0,.6,1.18,1.25,1.25,0,0,0,1.36-.33l3-2.33c.21-.15.45-.51.72-.23s-.11.47-.25.66l-2.21,2.85a1.09,1.09,0,0,0-.24,1.24,1.14,1.14,0,0,0,1.11.61,5.72,5.72,0,0,1,3,.79,3.82,3.82,0,0,0,4.27,0,5.84,5.84,0,0,1,3-.81,1.14,1.14,0,0,0,1.16-.64,1.18,1.18,0,0,0-.31-1.29c-.72-.93-1.45-1.86-2.16-2.8-.14-.18-.47-.4-.2-.65s.43.08.6.21c1.06.8,2.1,1.61,3.14,2.42a1.23,1.23,0,0,0,1.31.28,1.12,1.12,0,0,0,.6-1.11,6.58,6.58,0,0,1,.78-2.91A5.31,5.31,0,0,0,50.69,18.53Z"/><path class="cls-1" d="M40.05,36.56H61c1.27,0,1.27,0,1.27,1.24V68.37c0,1.26,0,1.26-1.25,1.26-2.59,0-5.18,0-7.78,0-.59,0-.92,0-.75-.8a7,7,0,0,0,0-1.83c0-.51.2-.71.71-.74C55,66.16,55,66.15,55,64.36v-.21c0-1.43,0-1.46-1.4-1.45-.68,0-.91-.26-.91-.92q0-3.93,0-7.85c0-.61.22-.87.83-.84s1,0,1.56,0,.8-.23.81-.75c0-1.58,0-3.16,0-4.74,0-.5-.26-.73-.76-.73s-1.18,0-1.76,0-.7-.2-.69-.68a7,7,0,0,0,0-.92,1.83,1.83,0,0,0-2-1.84H29.23a2,2,0,0,0-2.18,2.16c0,.19,0,.38,0,.56,0,.51-.19.74-.71.73s-1,0-1.55,0-.8.23-.8.76v4.6c0,.63.32.89.93.87s1,0,1.48,0,.65.2.65.64V62c0,.49-.27.64-.72.66-1.69.11-1.69.12-1.74,1.84s0,1.75,1.66,1.75c1.08,0,1.09,0,1.09,1.13a7.4,7.4,0,0,0,.09,1.76c.1.38-.1.47-.41.47h-8.2c-1,0-1.07,0-1.07-1.08v-31c0-.93.07-1,1-1H40.05Zm-.12,5.65H41.2c2.21,0,2.38-.19,2.06-2.42a.72.72,0,0,0-.78-.73H37.54a.72.72,0,0,0-.8.79c0,.54,0,1.08,0,1.63s.23.72.74.71Z"/><path class="cls-1" d="M39.86,69.63H33.71c-.52,0-.77-.06-.64-.7a9.35,9.35,0,0,0,0-1.91c0-.49.18-.75.69-.75H45.76c.46,0,.67.19.69.68a8.34,8.34,0,0,0,.17,2.38c.13.4-.33.28-.54.28-2.07,0-4.15,0-6.22,0Z"/><path class="cls-1" d="M39.5,56.88c-1.48,0-3,0-4.45,0-.57,0-.78-.22-.79-.8,0-1.7,0-1.7,1.66-1.7h8c.9,0,1,.08,1,1,0,1.52,0,1.52-1.48,1.53H39.5Z"/><path class="cls-1" d="M39.58,59.75c-1.51,0-3,0-4.53,0-.58,0-.78-.22-.79-.79,0-1.5,0-1.5,1.44-1.5h8.21c.9,0,1,.06,1,1,0,.19,0,.38,0,.57,0,.55-.22.76-.76.75Z"/><path class="cls-1" d="M39.53,62.68c-1.48,0-3,0-4.45,0-.68,0-.85-.31-.82-.91s-.11-1.17.8-1.16q4.52,0,9,0c.91,0,.75.61.78,1.17s-.14.92-.82.91C42.54,62.66,41,62.68,39.53,62.68Z"/><path class="cls-1" d="M49.61,61.34c.57,0,1,0,1,.64s-.3.72-.8.7-1,0-1-.68S49.26,61.32,49.61,61.34Z"/><path class="cls-1" d="M29.78,62.67c-.5,0-.89,0-.87-.69s.47-.63.92-.64.84.07.84.67S30.27,62.71,29.78,62.67Z"/><path class="cls-2" d="M39.93,42.21H37.46c-.51,0-.74-.22-.74-.71s0-1.09,0-1.63a.72.72,0,0,1,.8-.79h4.94a.72.72,0,0,1,.78.73c.32,2.23.15,2.43-2.06,2.42H39.93Z"/><path class="cls-2" d="M49.42,18.62a3.62,3.62,0,0,1-.52,1.53A6.8,6.8,0,0,0,48,22.8c0,.5-.28.56-.65.27L44.66,21a.71.71,0,0,1-.25-.87,4.87,4.87,0,0,0-.09-3.26.6.6,0,0,1,.2-.8c.94-.72,1.86-1.45,2.79-2.17.39-.3.63-.21.65.27a7.22,7.22,0,0,0,1,3.12A2.93,2.93,0,0,1,49.42,18.62Z"/><path class="cls-2" d="M35.5,16.88a5.17,5.17,0,0,0,0,3.47.48.48,0,0,1-.21.55l-2.9,2.26c-.26.21-.48.23-.51-.19a7,7,0,0,0-1.06-3.11,2.36,2.36,0,0,1,0-2.48,7.18,7.18,0,0,0,1.07-3.11c0-.4.24-.42.51-.2l2.9,2.25A.51.51,0,0,1,35.5,16.88Z"/><path class="cls-2" d="M39.8,9.65a2.58,2.58,0,0,1,1.3.36,7.87,7.87,0,0,0,3.11,1.09c.41,0,.48.24.23.56-.63.82-1.27,1.63-1.9,2.46a.55.55,0,0,1-.75.14,4.65,4.65,0,0,0-3.71,0,.62.62,0,0,1-.85-.24c-.58-.77-1.18-1.52-1.77-2.29-.2-.25-.34-.57.13-.6a11.27,11.27,0,0,0,3.56-1.29A4.31,4.31,0,0,1,39.8,9.65Z"/><path class="cls-2" d="M40,27.6A4.17,4.17,0,0,1,38.36,27a6.37,6.37,0,0,0-2.59-.87c-.48,0-.65-.23-.3-.67.61-.75,1.2-1.51,1.79-2.28a.62.62,0,0,1,.85-.23,4.55,4.55,0,0,0,3.65,0,.61.61,0,0,1,.84.24c.58.77,1.19,1.52,1.78,2.29.18.23.38.56-.12.6a11,11,0,0,0-3.56,1.28A7,7,0,0,1,40,27.6Z"/><path class="cls-2" d="M40,15.14a3.48,3.48,0,1,1-3.55,3.52A3.48,3.48,0,0,1,40,15.14Zm1.15,6.12c.87-.23,1.61-1.17,1.28-1.74s-.21-1.24-.58-1.75a9.32,9.32,0,0,1-1.17-1.41c-.12-.24-.34-.56-.64-.47s0,.46-.09.69a3.72,3.72,0,0,1-.11.48c0,.11-.16.22-.26.09-.55-.72-.54,0-.71.26a1.06,1.06,0,0,1-.26.33A2.32,2.32,0,0,0,37.63,20a1.28,1.28,0,0,0,1.56,1.25c-.15-.23-.3-.43-.43-.65a1.23,1.23,0,0,1,.07-1.51,8.9,8.9,0,0,1,1.5-1.17c.08-.06.23-.1.25,0,.12.47.75.79.73,1.09C41.25,19.75,41.86,20.57,41.12,21.26Z"/></svg>