<svg id="Layer_1" data-name="Layer 1" xmlns="http://www.w3.org/2000/svg" viewBox="0 0 80 80"><defs><style>.cls-1{fill:#85c778;stroke:#6e6f6f;stroke-miterlimit:10;}</style></defs><title>high rise</title><path d="M5.82,75a1.23,1.23,0,0,1-.76-1.5c.21-.74.8-.84,1.46-.83,1.79,0,3.59,0,5.47,0V6.89a6,6,0,0,1,.06-.95A1,1,0,0,1,13,5a4.66,4.66,0,0,1,.75,0H44c1.52,0,1.81.29,1.81,1.78V23.67H62.63a6,6,0,0,1,.95.06,1,1,0,0,1,.87.9,6.68,6.68,0,0,1,0,.89q0,18.9,0,37.8a1.17,1.17,0,0,0,.67,1.17,7.91,7.91,0,0,1,4,7.21c0,.29,0,.59,0,1,1.46,0,2.91,0,4.36,0A1.44,1.44,0,0,1,75,73.5V75ZM14.38,7.35V72.64a3.66,3.66,0,0,1,.39,0c.59.11.87-.09,1-.74a12.54,12.54,0,0,1,.7-1.91,3.15,3.15,0,0,0,.19-.9c0-.77,0-1.55,0-2.32a1.1,1.1,0,0,1,1.4-1.09c.73.13.86.71.93,1.19,1.13-.36,2.25-.7,3.35-1.08.14,0,.26-.28.32-.45a11.31,11.31,0,0,0,1-5.53.69.69,0,0,1,0-.2,1,1,0,0,1,1.07-.94,1,1,0,0,1,1.16.83c0,.18.09.37.14.57,3.68-2.21,7.09-1.79,10.41.95V25.7c0-.23,0-.45,0-.68,0-.95.4-1.32,1.35-1.34s1.64,0,2.46,0h3.15V7.35ZM62.11,63.23V26.06H38.89V63l.19,0a7.14,7.14,0,0,1,7.5.61.94.94,0,0,0,.74.06,6.69,6.69,0,0,1,6.28,1.24c.48.37.9.81,1.41,1.27.21-.24.42-.45.6-.69a3.44,3.44,0,0,0,.72-1.06,1.18,1.18,0,0,1,1.81-.85,1.11,1.11,0,0,0,.55.15C59.81,63.55,60.93,63.39,62.11,63.23Zm-17.56,2a4.41,4.41,0,0,0-5.63.83c-.46.47-.85,1.15-1.69.89s-.86-1-1-1.64a5.79,5.79,0,0,0-11.37,1.38c-.1,1-.42,1.22-1.41,1.39a9.32,9.32,0,0,0-2.76.85A5.33,5.33,0,0,0,18,72.63H42.71A7.15,7.15,0,0,1,44.55,65.19Zm22.18,7.48a5.81,5.81,0,0,0-2.23-5.82,5.71,5.71,0,0,0-6.19-.53,5.11,5.11,0,0,0-2.38,2.37,1.3,1.3,0,0,1-1.23.81,1.18,1.18,0,0,1-1-.88,4.3,4.3,0,0,0-.24-.48,4.76,4.76,0,0,0-7.62-.77,4.35,4.35,0,0,0-.67,4.57,1,1,0,0,0,1.08.75c6.56,0,13.12,0,19.68,0Z"/><path class="cls-1" d="M44.55,65.19a7.15,7.15,0,0,0-1.84,7.44H18a5.33,5.33,0,0,1,2.68-3.74A9.32,9.32,0,0,1,23.43,68c1-.17,1.31-.38,1.41-1.39a5.79,5.79,0,0,1,11.37-1.38c.16.66.23,1.4,1,1.64s1.23-.42,1.69-.89A4.41,4.41,0,0,1,44.55,65.19Z"/><path class="cls-1" d="M66.73,72.67h-.84c-6.56,0-13.12,0-19.68,0a1,1,0,0,1-1.08-.75,4.35,4.35,0,0,1,.67-4.57,4.76,4.76,0,0,1,7.62.77,4.3,4.3,0,0,1,.24.48,1.18,1.18,0,0,0,1,.88,1.3,1.3,0,0,0,1.23-.81,5.11,5.11,0,0,1,2.38-2.37,5.71,5.71,0,0,1,6.19.53A5.81,5.81,0,0,1,66.73,72.67Z"/><path d="M40,12c0,.41,0,.82,0,1.23a1.07,1.07,0,0,1-1.15,1.08,1.06,1.06,0,0,1-1.15-1.09c0-.81,0-1.63,0-2.45a1.15,1.15,0,0,1,2.3,0C40,11.18,40,11.6,40,12Z"/><path d="M30.69,40c0-.43,0-.86,0-1.29a1,1,0,0,1,1-1,1,1,0,0,1,1.2.84,17.67,17.67,0,0,1,0,2.91c0,.64-.56.9-1.18.87a1,1,0,0,1-1-1c0-.43,0-.86,0-1.29Z"/><path d="M19,12c0,.43,0,.86,0,1.29a1,1,0,0,1-1.06,1c-.62,0-1.12-.24-1.16-.89a19.23,19.23,0,0,1,0-2.84,1,1,0,0,1,1.16-.9,1,1,0,0,1,1.06,1C19,11.14,19,11.57,19,12Z"/><path d="M30.69,19c0-.41,0-.82,0-1.22a1,1,0,0,1,1.05-1,1,1,0,0,1,1.17.87,17.67,17.67,0,0,1,0,2.91c-.06.65-.59.87-1.2.83a1,1,0,0,1-1-1c0-.45,0-.91,0-1.36Z"/><path d="M30.69,26c0-.43,0-.87,0-1.3a1,1,0,0,1,1-1c.61,0,1.15.19,1.2.84a17.67,17.67,0,0,1,0,2.91,1,1,0,0,1-1.18.86,1,1,0,0,1-1-1c0-.43,0-.86,0-1.29Z"/><path d="M19,33.07c0,.41,0,.82,0,1.23a1,1,0,0,1-1.06,1,1,1,0,0,1-1.16-.9,19.37,19.37,0,0,1,0-2.85c.05-.64.55-.9,1.17-.87a1,1,0,0,1,1,.95c0,.47,0,1,0,1.42Z"/><path d="M19,47c0,.45,0,.91,0,1.36a1,1,0,0,1-1.07.93c-.59,0-1.09-.23-1.13-.84a19.76,19.76,0,0,1,0-3c0-.58.55-.82,1.09-.81a1,1,0,0,1,1.09.91A13.62,13.62,0,0,1,19,47Z"/><path d="M33,54.06A12.34,12.34,0,0,1,33,55.4a1,1,0,0,1-1.23.9,1,1,0,0,1-1-1c0-.84,0-1.68,0-2.52a1,1,0,0,1,1-1,1.05,1.05,0,0,1,1.21.93A11.27,11.27,0,0,1,33,54.06Z"/><path d="M23.65,33a13.48,13.48,0,0,1,.08-1.41,1,1,0,0,1,1-.88c.59,0,1.1.22,1.14.83a19.76,19.76,0,0,1,0,3c0,.59-.55.82-1.09.82a1,1,0,0,1-1.09-.9C23.67,34,23.67,33.47,23.65,33Z"/><path d="M23.71,40a12.14,12.14,0,0,1,0-1.35,1,1,0,0,1,1.11-1c.58,0,1.06.27,1.1.89a22.58,22.58,0,0,1,0,2.85,1.12,1.12,0,0,1-2.21-.06c0-.45,0-.9-.07-1.36Z"/><path d="M23.65,46.93c0-.43,0-.86.07-1.29a1,1,0,0,1,1.11-1c.57,0,1.06.27,1.1.9a24.46,24.46,0,0,1,0,2.84,1.12,1.12,0,0,1-2.21-.06c0-.47,0-1,0-1.43Z"/><path d="M30.68,47c0-.41,0-.82,0-1.23a1.08,1.08,0,0,1,1-1.11,1,1,0,0,1,1.2.94,18.43,18.43,0,0,1,0,2.78,1,1,0,0,1-1.22.9,1,1,0,0,1-1-1.06c0-.4,0-.81,0-1.22Z"/><path d="M40,19.06c0,.4,0,.81,0,1.22a1.06,1.06,0,0,1-1.2,1,1,1,0,0,1-1.08-1.06c0-.82,0-1.64,0-2.45a1.08,1.08,0,0,1,1.14-1.11A1.1,1.1,0,0,1,40,17.76c0,.43,0,.86,0,1.3Z"/><path d="M33,33A12.26,12.26,0,0,1,33,34.36a1.11,1.11,0,0,1-1.2,1,1.08,1.08,0,0,1-1.07-1.11c0-.81,0-1.63,0-2.45a1,1,0,0,1,1.08-1.08,1.07,1.07,0,0,1,1.2.95,1.52,1.52,0,0,1,0,.21V33Z"/><path d="M30.69,12c0-.43,0-.86,0-1.29a1.07,1.07,0,0,1,1.07-1,1,1,0,0,1,1.16.91,19.37,19.37,0,0,1,0,2.85c0,.63-.54.9-1.17.88a1.07,1.07,0,0,1-1.07-1,1.48,1.48,0,0,1,0-.21V12Z"/><path d="M23.7,11.94c0-.41,0-.82,0-1.22a1,1,0,0,1,1.11-1c.61,0,1.09.29,1.12,1a23.43,23.43,0,0,1,0,2.78c-.05.65-.54.92-1.16.9a1,1,0,0,1-1.05-.94c0-.47,0-.95,0-1.43Z"/><path d="M23.65,26c0-.45,0-.91.07-1.36a1,1,0,0,1,1.07-.91c.59,0,1.09.22,1.13.84a21.74,21.74,0,0,1,0,2.91c0,.63-.55.87-1.12.86a1,1,0,0,1-1.08-.91C23.67,26.93,23.67,26.45,23.65,26Z"/><path d="M23.7,54c0-.43,0-.87,0-1.29a1,1,0,0,1,1.12-1c.6,0,1.08.29,1.11,1a23.45,23.45,0,0,1,0,2.78c-.05.65-.54.9-1.16.88a1,1,0,0,1-1.05-.94c0-.44,0-.9,0-1.35Z"/><path d="M26,19.09c0,.42,0,.88-.09,1.32a1,1,0,0,1-1.17.89,1,1,0,0,1-1.05-.93c0-.91,0-1.82,0-2.72a1,1,0,0,1,1.1-1,1,1,0,0,1,1.13.94C26,18.11,26,18.58,26,19.09Z"/><path d="M19,40c0,.41,0,.82,0,1.22a1,1,0,0,1-1.1,1.06c-.62,0-1.09-.29-1.13-.94a21.34,21.34,0,0,1,0-2.77c0-.65.53-.92,1.14-.92a1,1,0,0,1,1.08,1A12.34,12.34,0,0,1,19,40Z"/><path d="M19,26.05c0,.43,0,.86,0,1.29a1,1,0,0,1-1.1,1c-.57,0-1.07-.24-1.11-.87a21.74,21.74,0,0,1,0-2.91c0-.62.55-.85,1.13-.83a1,1,0,0,1,1.07.92c0,.47,0,.95,0,1.43Z"/><path d="M19,54.05c0,.41,0,.82,0,1.22a1,1,0,0,1-1,1,1,1,0,0,1-1.19-.93,19.7,19.7,0,0,1,0-2.77,1,1,0,0,1,1.15-.92,1,1,0,0,1,1.08,1c0,.45,0,.91,0,1.36Z"/><path d="M19,61.05c0,.43,0,.87,0,1.29a1,1,0,0,1-1,1,1,1,0,0,1-1.18-.87,21.73,21.73,0,0,1,0-2.91c.05-.62.55-.85,1.13-.83a1,1,0,0,1,1.07.93c0,.47,0,.95,0,1.42Z"/><path d="M19,19.05c0,.41,0,.82,0,1.23a1,1,0,0,1-1.05,1,1,1,0,0,1-1.18-.93,18.43,18.43,0,0,1,0-2.78,1,1,0,0,1,1.15-.91,1,1,0,0,1,1.07,1c0,.45,0,.91,0,1.36Z"/><path d="M56.3,44.62c0-.43,0-.86.07-1.29a1,1,0,0,1,1.1-1,1,1,0,0,1,1.13.94,23.44,23.44,0,0,1,0,2.78c0,.61-.48.89-1.08.91A1,1,0,0,1,56.38,46a1.28,1.28,0,0,1-.05-.27V44.62Z"/><path d="M56.3,37.65a13.19,13.19,0,0,1,.1-1.43,1,1,0,0,1,1.12-.86.94.94,0,0,1,1.06.84,21.89,21.89,0,0,1,0,2.92c0,.62-.54.87-1.11.86a1,1,0,0,1-1.07-.85A14.71,14.71,0,0,1,56.3,37.65Z"/><path d="M58.69,30.68c0,.48,0,.91-.08,1.34a1,1,0,0,1-1.11,1,1,1,0,0,1-1.11-1,21.5,21.5,0,0,1,0-2.78c0-.61.49-.88,1.09-.89a1,1,0,0,1,1.1.88C58.67,29.73,58.66,30.23,58.69,30.68Z"/><path d="M58.69,51.7a13.55,13.55,0,0,1-.1,1.43,1,1,0,0,1-1.14.84c-.56,0-1-.27-1.05-.85a25.86,25.86,0,0,1,0-2.92c0-.59.53-.84,1.07-.85a1,1,0,0,1,1.12.87C58.66,50.71,58.66,51.21,58.69,51.7Z"/><path d="M58.69,58.67c0,.48,0,.92-.08,1.34a1,1,0,0,1-1.11,1A1,1,0,0,1,56.39,60a23.27,23.27,0,0,1,0-2.77c0-.63.51-.89,1.09-.89a1,1,0,0,1,1.11.86C58.66,57.72,58.66,58.23,58.69,58.67Z"/><path d="M44.64,44.61c0,.44,0,.87,0,1.3A1.07,1.07,0,0,1,43.55,47a1,1,0,0,1-1.18-1,20.57,20.57,0,0,1,0-2.72,1.06,1.06,0,0,1,1.14-.95,1.08,1.08,0,0,1,1.12,1c0,.4,0,.82,0,1.22Z"/><path d="M44.65,37.66c0,.41,0,.82,0,1.23A1.08,1.08,0,0,1,43.57,40a1.07,1.07,0,0,1-1.2-1,20.57,20.57,0,0,1,0-2.72,1,1,0,0,1,1.19-1,1.07,1.07,0,0,1,1.08,1.09C44.67,36.84,44.64,37.25,44.65,37.66Z"/><path d="M44.64,51.68c0,.43,0,.86,0,1.29a1,1,0,0,1-1.08,1c-.63,0-1.12-.26-1.16-.89a18.08,18.08,0,0,1,0-2.85,1,1,0,0,1,1.18-.88,1,1,0,0,1,1.06,1C44.67,50.81,44.64,51.25,44.64,51.68Z"/><path d="M51.63,37.68c0,.43,0,.86,0,1.29a1,1,0,0,1-1.07,1,1,1,0,0,1-1.15-.91,19.23,19.23,0,0,1,0-2.84c.05-.65.55-.91,1.17-.88a1,1,0,0,1,1.06,1,1.49,1.49,0,0,1,0,.21v1.09Z"/><path d="M51.64,30.66c0,.41,0,.82,0,1.22A1.07,1.07,0,0,1,50.57,33a1,1,0,0,1-1.19-1,18.86,18.86,0,0,1,0-2.71,1,1,0,0,1,1.17-1,1,1,0,0,1,1.08,1.08C51.66,29.84,51.64,30.25,51.64,30.66Z"/><path d="M44.65,30.66c0,.41,0,.82,0,1.22A1.1,1.1,0,0,1,43.5,33a1.08,1.08,0,0,1-1.14-1,18.66,18.66,0,0,1,0-2.59,1,1,0,0,1,1.19-1,1.07,1.07,0,0,1,1.1,1.14c0,.39,0,.77,0,1.16Z"/><path d="M51.63,44.66c0,.43,0,.86,0,1.29a1,1,0,0,1-1,1c-.62,0-1.12-.23-1.17-.87a20.18,20.18,0,0,1,0-2.91c.05-.62.57-.86,1.14-.84a1,1,0,0,1,1.06.95c0,.45,0,.9,0,1.36Z"/><path d="M51.64,51.69c0,.4,0,.81,0,1.22a1,1,0,0,1-1,1.05c-.67.06-1.16-.23-1.21-.89a18,18,0,0,1,0-2.84,1,1,0,0,1,1.18-.88,1,1,0,0,1,1,1c0,.45,0,.9,0,1.35Z"/><path d="M44.64,58.66c0,.43,0,.86,0,1.29a1,1,0,0,1-1.06,1,1,1,0,0,1-1.2-.94,20.57,20.57,0,0,1,0-2.72,1,1,0,0,1,1.18-1,1.06,1.06,0,0,1,1.09,1.07c0,.41,0,.82,0,1.23Z"/><path d="M51.63,58.7c0,.41,0,.82,0,1.23a1,1,0,0,1-1,1,1,1,0,0,1-1.21-.91,18.43,18.43,0,0,1,0-2.78,1,1,0,0,1,1.21-.91,1,1,0,0,1,1,1C51.65,57.84,51.63,58.27,51.63,58.7Z"/></svg>