<svg id="Layer_1" data-name="Layer 1" xmlns="http://www.w3.org/2000/svg" viewBox="0 0 80 80"><defs><style>.cls-1{fill:#eb2227;}</style></defs><title>hospital</title><path d="M53.28,59.84H55v-32H71.23v32H75V65H5v-5.1H9.11v-32H25v32h1.71V15.05H53.28ZM40,18.16a8.71,8.71,0,1,0,8.7,8.75A8.74,8.74,0,0,0,40,18.16Zm-4.54,41.5h9.23V48.32H35.46Zm-19-13.43H13v3.51h3.5Zm48,3.5H68v-3.5H64.48Zm-48,5.91V52.13H13v3.51ZM68,52.13H64.49v3.5H68Zm-49.49-5.9v3.51H22V46.23Zm20.36-4.86V37.86H35.38v3.51Zm25.62,2.14H68V40h-3.5ZM13,40v3.51H16.5V40Zm0-2.52H16.5V34H13ZM64.5,34v3.48H68V34ZM44.41,41.36V37.88H40.92v3.48Zm2-3.5v3.48H50V37.86Zm-11,4.84v3.49H39V42.7Zm9,3.49V42.71H41v3.48Zm2,0h3.51V42.71H46.55Zm15.93.06H59v3.5h3.49ZM22,52.13H18.52v3.51H22ZM59,55.64h3.5V52.12H59Zm-29-13v3.49h3.51V42.69Zm-11.44.82H22V40H18.5Zm40.47,0h3.51V40H59ZM18.52,34V37.5H22V34ZM59,37.49h3.5V34H59Zm-29.13.37v3.48h3.49V37.86Z"/><path class="cls-1" d="M42.17,21.4v3.31h3.32V29H42.18v3.32H37.84V29H34.51V24.73h3.32V21.4Z"/></svg>