<svg id="Layer_1" data-name="Layer 1" xmlns="http://www.w3.org/2000/svg" viewBox="0 0 80 80"><defs><style>.cls-1{fill:#fff;}</style></defs><title>Library</title><path d="M4,71.46,6.51,70c0-.49,0-1.37,0-2.25-.07-1.29.55-1.86,1.78-1.88a6.13,6.13,0,0,0,2.6-.36c.78-.8,1.58-1.58,2.34-2.41a1.55,1.55,0,0,0,.39-.92q0-11.26,0-22.51a2.25,2.25,0,0,0-.18-.55h-4V34.43H70.52V39.1h-4.2c0,.53-.12.93-.12,1.34,0,7.08,0,14.16,0,21.23,0,.76,0,1.28.94,1.7.71.31,1.09,1.35,1.62,2.06l-.26.41h3.12c1.28,0,2,.58,1.88,1.94,0,.84,0,1.68,0,2.26L76,71.46v2.85A6.84,6.84,0,0,1,74,75Q40,75,6,75a6.81,6.81,0,0,1-2-.66Zm20.64-5.64H55.49c.65-.95,1-2,1.71-2.35a1.66,1.66,0,0,0,1-1.82q0-10.47,0-20.93V39.2H21.81a5,5,0,0,0-.11.66q0,11.1,0,22.19a1.84,1.84,0,0,0,.4,1.08C22.8,63.94,23.57,64.69,24.63,65.82Z"/><path d="M39.92,5,72.51,30.5H7.5C18.42,21.9,29.11,13.5,39.92,5Zm6.92,15.68a6.84,6.84,0,1,0-7,6.87A6.86,6.86,0,0,0,46.84,20.68Z"/><path class="cls-1" d="M40,23.91a3.35,3.35,0,0,0,3.29-3.35,3.33,3.33,0,0,0-6.66.08A3.33,3.33,0,0,0,40,23.91Z"/><path d="M29.16,44.17c.1-.15.15-.19.16-.24.24-3.17.24-3.17,3.53-3,2.89.13,4.71,1,7.09,3.24A10.67,10.67,0,0,1,48.32,41c2.16.05,2.23.11,2.28,2.21,0,.31,0,.61.06.9,2.61.39,2.61.39,2.61,3.07V60.62c0,.62-.07,1.24-.12,2.05-1.59-.29-3-.53-4.45-.8a14.71,14.71,0,0,0-7.77.72,2.77,2.77,0,0,1-1.79.09c-3.55-1.46-7.12-1.18-10.72-.32-1.8.43-1.9.37-1.9-1.47,0-4.59,0-9.19,0-13.78C26.52,44.39,26.52,44.39,29.16,44.17Zm1.91-1.64V56.42L39.2,58.8c0-4,0-8.26,0-12.48a1.88,1.88,0,0,0-.46-1.13C36.74,42.84,34.14,42.23,31.07,42.53ZM48.8,56.28V42.58a9.19,9.19,0,0,0-6.91,1.88,3.2,3.2,0,0,0-1.24,2.73c.07,3.58,0,7.17,0,10.75,0,.44.08.87.09,1.05ZM38.12,60.54a11.11,11.11,0,0,0-6.62-2.08c-2.18,0-2.18,0-2.17-2.26,0-3.11,0-6.23,0-9.34,0-.81-.1-1.38-1.19-1V60.54ZM51,45.63l-.41.21c0,3.68,0,7.36,0,11,0,1.24-.38,1.7-1.66,1.59a10.42,10.42,0,0,0-6.86,2h9.63c0-4.59,0-9.27,0-13.95C51.73,46.25,51.28,45.94,51,45.63Z"/><path d="M40,23.91a3.29,3.29,0,1,1,0-6.57,3.39,3.39,0,0,1,3.29,3.22A3.35,3.35,0,0,1,40,23.91Z"/></svg>