<?xml version="1.0" encoding="UTF-8"?>
<svg id="Layer_1" xmlns="http://www.w3.org/2000/svg" viewBox="0 0 100 100">
  <defs>
    <style>
      .cls-1 {
        fill: none;
        stroke: #000;
        stroke-miterlimit: 10;
        stroke-width: 5px;
      }
    </style>
  </defs>
  <path d="M-6.67,20.33c37.73,0,73.16,13.62,99.76,38.34,26.36,24.5,40.87,57,40.87,91.52s-14.52,67.02-40.87,91.52c-26.6,24.72-62.03,38.34-99.76,38.34s-73.16-13.62-99.76-38.34c-26.36-24.5-40.87-57-40.87-91.52s14.52-67.02,40.87-91.52C-79.83,33.94-44.4,20.33-6.67,20.33M-6.67,8.33c-84.3,0-152.63,63.51-152.63,141.85S-90.97,292.04-6.67,292.04s152.63-63.51,152.63-141.85S77.62,8.33-6.67,8.33h0Z"/>
  <path class="cls-1" d="M26.71,91.74H-44.31c-27.19,0-58.54,29.54-58.54,58.29s32.08,56.2,59.01,57.07v.02H26.71c27.19,0,62.02-28.34,62.02-57.09s-34.83-58.29-62.02-58.29Z"/>
  <path class="cls-1" d="M-7.06,60.96c-65.53,0-120.43,38.08-134.78,89.22,14.35,51.14,69.25,89.22,134.78,89.22s120.43-38.08,134.78-89.22C113.37,99.04,58.47,60.96-7.06,60.96Z"/>
</svg>