<?xml version="1.0" encoding="UTF-8"?>
<svg id="Layer_1" xmlns="http://www.w3.org/2000/svg" viewBox="0 0 100 100">
  <defs>
    <style>
      .cls-1 {
        fill: #fff;
      }

      .cls-2, .cls-3 {
        fill: none;
      }

      .cls-4 {
        fill: #797979;
      }

      .cls-3 {
        stroke: #000;
        stroke-miterlimit: 10;
        stroke-width: 5px;
      }
    </style>
  </defs>
  <g>
    <path class="cls-1" d="M92.94,6.45c18.96,0,37.92,0,56.88,0,2.61,0,4.65.98,5.76,3.39.39.85.55,1.88.55,2.83.05,6.33.02,12.66.02,18.99,0,18.46,0,36.92,0,55.38,0,3.08-1.7,5.39-4.46,6.02-.58.13-1.2.18-1.8.18-37.97,0-75.95,0-113.92,0-3.84,0-6.27-2.44-6.27-6.29,0-24.71,0-49.42,0-74.13,0-3.96,2.4-6.37,6.35-6.37,18.96,0,37.92,0,56.88,0ZM94.78,89.51c.38,0,.64,0,.9,0,18.09,0,36.18,0,54.26,0,1.73,0,2.5-.77,2.5-2.52,0-3.56-.02-7.12.02-10.68,0-.69-.17-.9-.88-.89-4.96.03-9.91.04-14.87,0-4.68-.03-8.01-3.38-8.02-8.06-.01-11.68-.01-23.36,0-35.04,0-4.72,3.38-8.05,8.1-8.06,4.96,0,9.91-.01,14.87.01.63,0,.81-.19.8-.81-.03-3.59,0-7.17-.01-10.76,0-1.78-.76-2.53-2.57-2.53-18.06,0-36.12,0-54.18,0-.28,0-.56.03-.87.05-.02.26-.04.44-.04.62,0,6.91,0,13.82-.02,20.72,0,.61.25.72.78.8,8.59,1.23,15.03,8.68,15.06,17.39.03,8.77-6.36,16.28-14.97,17.53-.75.11-.87.39-.86,1.05.02,6.75.01,13.5.01,20.25v.92ZM33.48,24.27c.37,0,.68,0,.99,0,4.85,0,9.7,0,14.56,0,4.81,0,8.17,3.34,8.18,8.15,0,11.63,0,23.26,0,34.88,0,.65-.05,1.32-.19,1.96-.78,3.6-3.82,6.11-7.53,6.15-5.06.05-10.13.03-15.19,0-.65,0-.86.18-.85.84.03,3.61,0,7.22.02,10.84,0,1.64.78,2.41,2.44,2.41,18.11,0,36.23,0,54.34.02.72,0,.87-.22.87-.9-.02-6.78-.02-13.55,0-20.33,0-.64-.13-.89-.83-1-8.62-1.27-15.02-8.76-15-17.52.02-8.71,6.46-16.18,15.04-17.4.67-.1.79-.35.79-.95-.02-6.8-.01-13.61-.01-20.41,0-.25-.02-.51-.04-.84-.36,0-.65,0-.93,0-18.04,0-36.07,0-54.11,0-1.82,0-2.56.73-2.56,2.53,0,3.56,0,7.12,0,10.68,0,.26.02.51.04.88ZM152.45,34.14c0-1.87-.03-3.63.01-5.39.02-.64-.21-.79-.81-.79-4.96.02-9.91,0-14.87.01-2.64,0-4.37,1.72-4.37,4.35,0,11.68,0,23.36,0,35.04,0,2.6,1.7,4.33,4.3,4.35,5.01.02,10.02,0,15.03.02.63,0,.74-.24.73-.79-.03-1.5-.05-3.01,0-4.51.03-.77-.25-.91-.95-.9-2.98.03-5.96.03-8.94,0-2.37-.02-3.99-1.64-4-3.98-.01-7.8-.01-15.61,0-23.41,0-2.35,1.63-3.98,3.98-4,2.95-.03,5.91,0,8.86,0,.29,0,.57,0,1.01,0ZM33.48,71.69c.33.01.56.03.8.03,4.93,0,9.86,0,14.79,0,2.7,0,4.39-1.7,4.39-4.4,0-11.65,0-23.3,0-34.95,0-2.71-1.69-4.39-4.39-4.4-3.72,0-7.43,0-11.15,0-1.27,0-2.53.02-3.8,0-.52-.01-.69.16-.68.68.03,1.66,0,3.32.01,4.98,0,.15.04.3.07.52.32,0,.61,0,.89,0,2.85,0,5.69,0,8.54,0,2.79,0,4.33,1.53,4.33,4.29,0,7.62,0,15.23,0,22.85,0,2.72-1.55,4.28-4.25,4.28-2.9,0-5.8,0-8.7,0-.28,0-.56.02-.85.04v6.09ZM94.84,36.11v27.46c4.89-.27,11.97-5.08,12.07-13.57.1-8.47-6.88-13.56-12.07-13.9ZM91.03,36.12c-4.94.29-12.06,5.16-12.06,13.73,0,8.59,7.14,13.45,12.06,13.73v-27.46ZM43.52,61.79v-23.85h-10.03v23.85h10.03ZM152.39,61.79v-23.88c-.28-.01-.52-.04-.75-.04-2.85,0-5.69.02-8.54-.02-.69,0-.82.24-.82.86.02,7.41.01,14.81.01,22.22,0,.28.04.55.06.86h10.04Z"/>
    <path d="M93.33-79.67c37.73,0,73.16,13.62,99.76,38.34,26.36,24.5,40.87,57,40.87,91.52s-14.52,67.02-40.87,91.52c-26.6,24.72-62.03,38.34-99.76,38.34s-73.16-13.62-99.76-38.34c-26.36-24.5-40.87-57-40.87-91.52S-32.79-16.84-6.43-41.33c26.6-24.72,62.03-38.34,99.76-38.34M93.33-91.67C9.03-91.67-59.31-28.16-59.31,50.18S9.03,192.04,93.33,192.04s152.63-63.51,152.63-141.85S177.62-91.67,93.33-91.67h0Z"/>
    <path class="cls-3" d="M126.71-8.26H55.69C28.5-8.26-2.85,21.28-2.85,50.02s32.08,56.2,59.01,57.07v.02h70.55c27.19,0,62.02-28.34,62.02-57.09S153.89-8.26,126.71-8.26Z"/>
    <path class="cls-3" d="M92.94-39.04C27.4-39.04-27.49-.96-41.84,50.18c14.35,51.14,69.25,89.22,134.78,89.22s120.43-38.08,134.78-89.22C213.37-.96,158.47-39.04,92.94-39.04Z"/>
    <path class="cls-4" d="M291.15,43.57h-21.73c-2.05,0-3.71,1.66-3.71,3.71v-.55H68.83L-71.88,17.55l.14-.68c.28-1.34-.58-2.65-1.92-2.93l-15.5-3.22c-1.34-.28-2.65.58-2.93,1.92l-1.34,6.47c-.28,1.34.58,2.65,1.92,2.93l15.5,3.22c1.34.28,2.65-.58,2.93-1.92l.19-.94L58.32,49.61l-132.89,27.56-.17-.81c-.28-1.34-1.59-2.2-2.93-1.92l-15.5,3.22c-1.34.28-2.2,1.59-1.92,2.93l1.34,6.47c.28,1.34,1.59,2.2,2.93,1.92l15.5-3.22c1.34-.28,2.2-1.59,1.92-2.93l-.17-.81,141.24-29.29-.25-1.23.25.05v1.07h198.03v-.84c0,2.05,1.66,3.71,3.71,3.71h21.73c2.05,0,3.71-1.66,3.71-3.71v-4.49c0-2.05-1.66-3.71-3.71-3.71Z"/>
  </g>
  <rect class="cls-2" x="-200" y="-200" width="300" height="300"/>
</svg>