<svg id="Layer_1" data-name="Layer 1" xmlns="http://www.w3.org/2000/svg" viewBox="0 0 80 80"><defs><style>.cls-1{fill:#bae4eb;stroke:#6e6f6f;stroke-miterlimit:10;}</style></defs><title>Police Station</title><path class="cls-1" d="M40,28.9H53.77a1.43,1.43,0,0,0,1.63-1.61V20.91a1.44,1.44,0,0,0-1.63-1.62H26.23a1.43,1.43,0,0,0-1.61,1.6v6.42a1.42,1.42,0,0,0,1.61,1.59Z"/><path d="M52.51,60.72H46.57V54.24H33.47V60.7h-6v-31h25Zm-19-20.91h4.78V32.09H33.47Zm0,10.87h4.77V43H33.48ZM41.78,43v7.72h4.75V43Zm4.75-10.88H41.79v7.73h4.74Z"/><path d="M73.34,60.71h-20V34.53h20ZM69.83,56V48.28H65.1V56Zm-13-18.62v7.73h4.74V37.4Zm13,7.73V37.41H65.09v7.72Zm-13,3.14V56h4.74V48.27Z"/><path d="M26.71,60.71h-20V34.53h20ZM14.93,37.41H10.17v7.72h4.76ZM10.17,48.28V56h4.76V48.28Zm13.05-3.14V37.41H18.47v7.73Zm0,3.14H18.47V56h4.75Z"/><path d="M40,28.9H26.23a1.42,1.42,0,0,1-1.61-1.59V20.89a1.43,1.43,0,0,1,1.61-1.6H53.77a1.44,1.44,0,0,1,1.63,1.62v6.38a1.43,1.43,0,0,1-1.63,1.61Zm-6.39-4.79h0c0,.41,0,.83,0,1.24a1.79,1.79,0,0,0,3.57.06,22.55,22.55,0,0,0,0-2.6,1.65,1.65,0,0,0-1.83-1.61,1.67,1.67,0,0,0-1.74,1.67C33.58,23.28,33.61,23.69,33.61,24.11Zm-2.9,1c.32,0,.58,0,.83-.05a1.47,1.47,0,0,0,1.39-1.17,3.71,3.71,0,0,0,0-1.41,1.31,1.31,0,0,0-1.16-1.11,19,19,0,0,0-2.14,0v5.51h1.09Zm19.45-1.59H48.61V22.36h1.72v-1H47.49v5.54h2.9V25.83H48.62V24.57h1.54Zm-4.44,1.7c0,.1,0,.2-.08.29a.56.56,0,0,1-.65.38.48.48,0,0,1-.49-.51c0-.87,0-1.74,0-2.6a.64.64,0,0,1,.39-.48,1,1,0,0,1,.63.23c.11.07.11.28.17.42h1.06a1.6,1.6,0,0,0-1.57-1.78,1.53,1.53,0,0,0-1.84,1.44,26.39,26.39,0,0,0,0,2.95A1.54,1.54,0,0,0,45.21,27a1.56,1.56,0,0,0,1.55-1.76Zm-6.58.6v-4.5H38.05v5.54H40.8v-1Zm2.26-4.51v5.54h1.05V21.33Z"/><path d="M53.31,33.76V31H74.1c.71,0,.9.18.9.9v1.16a.63.63,0,0,1-.7.7c-.18,0-.36,0-.55,0H53.31Z"/><path d="M26.71,31v2.76H5.91c-.71,0-.91-.18-.91-.88V31.75A.67.67,0,0,1,5.74,31h21Z"/><path d="M40.37,60.71h-.72V54.94h.72Z"/><path d="M36,24.16c0,.37,0,.73,0,1.09a.62.62,0,0,1-.65.66c-.36,0-.58-.24-.59-.67q0-1.12,0-2.25c0-.46.24-.69.62-.68s.6.24.62.69S36,23.78,36,24.16Z"/><path d="M30.75,22.38c.38,0,.77-.09,1,.29a1,1,0,0,1,0,1.07c-.23.38-.62.3-1,.29Z"/></svg>