<svg id="Layer_1" data-name="Layer 1" xmlns="http://www.w3.org/2000/svg" viewBox="0 0 80 80"><defs><style>.cls-1{fill:#fff;}</style></defs><title>school</title><path class="cls-1" d="M76.21,75h.46c.85,0,1.38-.49,1.39-1.21a1.24,1.24,0,0,0-1.36-1.25c-.28,0-.56,0-.84,0-.92,0-1.46.46-1.47,1.21S74.93,75,75.82,75Z"/><path d="M70.74,43.07V72.55c.43,0,.83,0,1.23,0a1.22,1.22,0,0,1,1.18,1.19A1.23,1.23,0,0,1,72,75c-.23,0-.46,0-.69,0H3.81c-1.29,0-1.9-.41-1.87-1.27s.6-1.19,1.87-1.19H9.24V43.07c-.35,0-.73,0-1.1,0a1.22,1.22,0,0,1-1.29-1.31c0-1.12,0-2.25,0-3.37s.45-1.44,1.46-1.45h17v-.88c0-3.66,0-7.31,0-11a1.86,1.86,0,0,1,.85-1.67c4-2.92,8.07-5.87,12.11-8.78a1.21,1.21,0,0,0,.57-1.14c0-2.3,0-4.6,0-6.9,0-1.16.42-1.58,1.56-1.59h7.91c1.16,0,1.58.42,1.58,1.56,0,1.38,0,2.76,0,4.15s-.39,1.66-1.63,1.66H41.32a2.22,2.22,0,0,0,1,2.68c3.88,2.71,7.66,5.55,11.5,8.31a2,2,0,0,1,.91,1.8c0,3.89,0,7.77,0,11.77H71.46c1.31,0,1.69.38,1.7,1.68v2.84c0,1.21-.41,1.61-1.61,1.62ZM30.18,72.5V57c0-1.31.38-1.69,1.69-1.69H48.13c1.31,0,1.69.38,1.69,1.69,0,4.88,0,9.77,0,14.65v.81h2.46v-.7q0-22.95,0-45.89a1.15,1.15,0,0,0-.57-1.06C49.15,23,46.59,21.13,44,19.27l-4-2.92C36.08,19.2,32.22,22,28.34,24.81a1.35,1.35,0,0,0-.63,1.25q0,22.8,0,45.58v.86ZM11.81,43.11V72.48H25.23V43.11Zm43,0V72.48H68.2V43.1ZM38.72,72.51V57.87h-6V72.51Zm8.6,0V57.87h-6V72.51Zm-38-32H25.22V39.43H9.33Zm61.34-1.11H54.77v1.13h15.9ZM41.26,9.86h6.05V7.5H41.26Z"/><path d="M76.21,75h-.39c-.89,0-1.44-.5-1.43-1.25s.55-1.19,1.47-1.21c.28,0,.56,0,.84,0a1.24,1.24,0,0,1,1.36,1.25c0,.72-.54,1.18-1.39,1.21Z"/><path d="M39.92,54.12H31.79c-1.2,0-1.61-.41-1.61-1.61,0-1.82,0-3.63,0-5.45,0-1.1.43-1.53,1.53-1.53H48.29c1.1,0,1.53.43,1.53,1.53q0,2.76,0,5.52c0,1.11-.43,1.54-1.53,1.54ZM47.33,48H32.7v3.58H47.33Z"/><path d="M47.37,32a7.37,7.37,0,1,1-7.3-7.36A7.37,7.37,0,0,1,47.37,32Zm-2.46,0a4.91,4.91,0,1,0-5,4.88A4.93,4.93,0,0,0,44.91,32.05Z"/><path d="M18.47,54.12c-.95,0-1.9,0-2.84,0a1.25,1.25,0,0,1-1.41-1.43c0-1.92,0-3.83,0-5.75a1.24,1.24,0,0,1,1.42-1.41h5.75A1.25,1.25,0,0,1,22.81,47c0,1.92,0,3.84,0,5.76a1.25,1.25,0,0,1-1.42,1.41C20.41,54.13,19.44,54.12,18.47,54.12ZM16.72,48v3.59h3.59V48Z"/><path d="M14.21,60.87c0-1,0-1.94,0-2.91a1.23,1.23,0,0,1,1.37-1.38h5.84A1.23,1.23,0,0,1,22.8,58c0,1.94,0,3.89,0,5.83a1.23,1.23,0,0,1-1.37,1.38c-1.95,0-3.89,0-5.84,0a1.23,1.23,0,0,1-1.37-1.38C14.2,62.82,14.21,61.85,14.21,60.87Zm2.52-1.8v3.58h3.58V59.07Z"/><path d="M61.5,45.53c1,0,1.94,0,2.91,0a1.23,1.23,0,0,1,1.37,1.39c0,1.94,0,3.88,0,5.83a1.23,1.23,0,0,1-1.38,1.37c-2,0-3.89,0-5.84,0a1.23,1.23,0,0,1-1.36-1.39c0-1.94,0-3.89,0-5.83a1.22,1.22,0,0,1,1.38-1.37C59.55,45.51,60.53,45.53,61.5,45.53Zm1.79,6.1V48H59.7v3.6Z"/><path d="M65.79,60.87c0,1,0,1.94,0,2.91a1.24,1.24,0,0,1-1.37,1.39c-1.94,0-3.89,0-5.83,0A1.23,1.23,0,0,1,57.2,63.8c0-1.95,0-3.89,0-5.84a1.22,1.22,0,0,1,1.37-1.38H64.4A1.23,1.23,0,0,1,65.78,58C65.8,58.92,65.79,59.9,65.79,60.87ZM63.3,59.09H59.71v3.59H63.3Z"/><path d="M37.54,65.19c0,.41,0,.82,0,1.23a1.22,1.22,0,0,1-1.24,1.2,1.19,1.19,0,0,1-1.2-1.16c0-.87,0-1.74,0-2.61a1.18,1.18,0,0,1,1.22-1.13,1.21,1.21,0,0,1,1.2,1.16c0,.44,0,.87,0,1.31Z"/><path d="M44.91,65.11c0,.43,0,.87,0,1.3a1.22,1.22,0,1,1-2.43,0c0-.81,0-1.63,0-2.45a1.2,1.2,0,0,1,1.23-1.21A1.23,1.23,0,0,1,44.91,64C44.93,64.34,44.91,64.73,44.91,65.11Z"/></svg>