<svg id="Layer_1" data-name="Layer 1" xmlns="http://www.w3.org/2000/svg" viewBox="0 0 250 250"><title>Survivor</title><path d="M90.66,67.94c-4.07-1.16-7.38-2-10.63-3.06-2.41-.77-5.3-1.49-5.8-4.33-.57-3.19,2.4-4.56,4.5-6.11a41.22,41.22,0,0,1,12.41-6.18c3.92-1.2,4.82-3.63,4.11-7.13a41.89,41.89,0,0,0-2.08-7.78c-1.59-3.77-.23-5.88,3.13-7.53,7-3.42,14.56-4.6,22.13-5.36a77.72,77.72,0,0,1,32.37,3.18,38.94,38.94,0,0,1,5.74,2.5c2.77,1.44,3.94,3.54,2.46,6.65a25.28,25.28,0,0,0-1.27,3.83c-2.22,7.93-1.4,9.71,5.88,13.1a49.57,49.57,0,0,1,9.81,5.4c1.75,1.37,3.92,2.6,3.53,5.29s-2.83,3.41-4.87,4.13a55.72,55.72,0,0,1-9.94,2.67c-3.21.48-4.33,1.92-4.2,5,.28,6.89-1.65,13.28-4.74,19.4-2.62,5.16-2.09,8.24,2.44,11.8,3.63,2.86,7.62,5.26,11.48,7.84,2,1.33,4,2.56,6,3.88,19.16,12.73,21.08,24.25,14.13,46.54-1.21,3.88-3.31,7.4-7.19,9.39-4.14,2.11-7.54,1.26-10-2.69-1.51-2.41-2.66-5-4.21-7.41-3.12-4.78-6.7-5-10.48-.61-4.17,4.8-5.18,10.74-5.36,16.77-.13,4.46.45,8.94.67,13.42a42,42,0,0,1,0,4.49c-.07,1.32-.14,3.06-1.91,3-1.95-.06-2.25-1.88-2-3.37a86.55,86.55,0,0,0,.74-16.56c-.07-1.72.35-4.11-2-4.36-2-.21-2.83,1.91-3.55,3.55-.93,2.09-.95,4.34-1.08,6.59-.3,4.85-1.38,9.2-6.87,10.9-2.59.8-2.91,3.19-2.9,5.52,0,8.08.08,16.16.12,24.25a29.5,29.5,0,0,1,0,3.12c-.11,1.06-.4,2.19-1.73,2.28a2.06,2.06,0,0,1-2.39-2.12c.53-4.49-1.4-8-3.83-11.46-1.06-1.53-.33-3.47-.14-5.26.66-6.12,1.22-12.26-1.76-18-2.67-5.16-5.19-5.53-9.08-1.27a13,13,0,0,1-4.5,3.63c-3.86,1.57-6.85.06-7.81-4A17.2,17.2,0,0,1,99.4,187c.16-4-1.46-6.54-5.39-7.66-4.35-1.25-5.44-4.78-5.65-8.74-.18-3.58,0-7.17-.8-10.72s-2.57-5-6.45-3.65c-7.31,2.65-11.78.37-14.32-6.89-4.57-13.1-2.21-21.45,8.64-30.2,5-4.05,10.79-7,16.2-10.47,3.27-2.11,6.57-4.23,8.73-7.6,2.65-4.15,1.63-7.33-3.18-8.47-9.64-2.29-19.32-1.19-28.95.45-1.91.32-3.78.91-5.68,1.31-1.09.22-2.41,1.18-3.25-.19-.71-1.15.11-2.33.73-3.33,2.42-3.9,6-6.67,9.53-9.41C76,76.52,83.08,72.65,90.66,67.94ZM63,91c2.11-.72,3.47-1.24,4.85-1.65,13.7-4.11,27.13-8.66,42-3.9,8.51,2.73,14.93-.91,19-8.07a36.57,36.57,0,0,0,4.5-18.93c0-2.36-.83-3.64-3.37-3.63-8.5.06-17-.12-25.5.51-4.69.34-6.3,2.51-6.37,6.65-.09,4.77-2.57,7.54-6.81,9.5A123,123,0,0,0,71.19,83.2C68.37,85.23,65.28,87.08,63,91Z"/><path d="M123.86,69.76a8.77,8.77,0,0,1-8.63,9,8.92,8.92,0,0,1-.13-17.84A8.84,8.84,0,0,1,123.86,69.76Z"/></svg>