<svg id="Layer_1" data-name="Layer 1" xmlns="http://www.w3.org/2000/svg" viewBox="0 0 80 80"><title>townhouse</title><path d="M72.75,41.2v5.58c0,3.63,0,7.26,0,10.89,0,1.58-.1,1.63-1.69,1.63l-11.16,0-50.6.09C8.11,59.42,8,59.3,8,58.13q.13-9,.28-17.93c0-.27,0-.55,0-.91L5.14,41.67c-.18-1.12-.34-2.06.53-2.85,1.11-1,2.17-2.09,3.3-3.09a1.8,1.8,0,0,0,.66-1.35c.08-1.91.17-3.82.26-5.73-.28-.17-.73-.3-.76-.49a5.15,5.15,0,0,1,.08-1.56c0-.11.23-.25.38-.28a11.78,11.78,0,0,1,1.56-.16c1.46,0,2.92,0,4.38,0,.52,0,.77.18.78.69,0,.25,0,.5.05.75.05,1,.05,1-.89,1.06,0,.15,0,.3.06.44s.07.3.12.53l.62-.52,9.12-8.08c.71-.63.81-.63,1.55,0,2,1.69,3.94,3.39,5.94,5.06a1.7,1.7,0,0,0,1,.37q16.08.09,32.18.13c.7,0,1.41.1,2.12.1a1.39,1.39,0,0,1,1.34.93q2.56,5.22,5.18,10.41a4,4,0,0,1,.09,2.67c0,.13-.28.27-.45.3C73.8,41.12,73.23,41.15,72.75,41.2ZM43.61,58.27v-.65q0-9.34.06-18.69a1.19,1.19,0,0,0-.38-.8q-5.44-4.62-10.94-9.22a1.14,1.14,0,0,0-.65-.27c-3.59-.06-7.17-.09-10.75-.12a1.15,1.15,0,0,0-.67.23q-5.55,4.83-11.07,9.69a.89.89,0,0,0-.27.63c0,6.07.09,12.14.14,18.21v1H19.47c.09-.61-.21-1.37.66-1.62.05,0,.05-.21.05-.32.06-2.87.11-5.74.17-8.64l-.94.44a2.32,2.32,0,0,1,.53-2.87q2.94-2.67,5.85-5.36a.72.72,0,0,1,1.13,0c2,1.73,3.93,3.47,5.91,5.19a2.56,2.56,0,0,1,1,2.2,5.74,5.74,0,0,1-.19.82c-.23-.07-.46-.14-.69-.23a2.18,2.18,0,0,1-.37-.19.9.9,0,0,0,0,.24q.11,3.8.22,7.59c0,.48-.11,1,.42,1.33.13.08.11.42.11.64a5.3,5.3,0,0,1-.11.79Zm4.09-18,26.79.23c-.27-1.57-1.31-2.85-1.87-4.32s-1.26-3-1.91-4.46-1.32-2.94-1.89-4.23h-34l-.05.26.53.48,11.43,9.9C47.37,38.68,48,39.26,47.7,40.26Zm20.52,6.41h-20c.1,3.89.2,7.76.29,11.68H68ZM47.65,58.29c.32-4-.1-8,.29-12,.77,0,1.43-.11,2.08-.11,5.93,0,11.86,0,17.8,0,.62,0,.85.21.85.82,0,2,0,4.06,0,6.09,0,1.75,0,3.5,0,5.26h2.86c.12-5.74.24-11.43.35-17.14h-.34q-11.47.09-22.93.21a2.92,2.92,0,0,1-2.07-.68c-.74-.62-1.53-1.18-2.36-1.82.1,6.51.19,12.91.28,19.36ZM23.19,56.57V47.31c0-1.32.15-1.49,1.49-1.55,1,0,2.05,0,3.08,0,1.84,0,1.87,0,1.82,1.85-.08,3-.13,5.91-.2,8.88h1.79a2.72,2.72,0,0,0,.07-.43c.08-3,.16-6,.22-9a.65.65,0,0,0-.2-.46c-1.62-1.36-3.26-2.71-4.9-4.07-1.58,1.35-3.14,2.68-4.68,4a.68.68,0,0,0-.21.47c0,2,.11,4,.15,6,0,1.2,0,2.4,0,3.61Zm1.17-9.9q-.11,4.95-.21,9.82h4.34V46.86Zm1.82-25.06-.56.47C23,24.38,20.39,26.7,17.76,29c-3.79,3.29-7.57,6.6-11.43,9.8a2.19,2.19,0,0,0-.79,2.09c.59-.48,1-1.08,1.61-1.58q9.15-8.19,18.32-16.36c.51-.46.85-.4,1.34,0,2.58,2.25,5.2,4.44,7.78,6.69,4.17,3.62,8.31,7.27,12.46,10.91a.91.91,0,0,0,.22.09c0-1.51,0-1.51-1.15-2.34-.23-.18-.48-.35-.7-.54L28.11,23.26ZM31,27.79l-4.91-4.18-5,4.4ZM10.2,28.6l.22,5.78C11.82,33.13,13,32,14.3,30.93a2.33,2.33,0,0,0,.75-2.33Zm23,18.61.21-.05c-.09-.36-.06-.86-.29-1-2.05-1.71-4.13-3.37-6.21-5l-.54-.42-.91.8c-1.75,1.49-3.48,3-5.29,4.44-.55.43-.74.75-.38,1.39l.25-.22c1.89-1.72,3.78-3.44,5.64-5.19a.88.88,0,0,1,1.4,0C29.07,43.66,31.13,45.43,33.17,47.21Zm-1,11c.13-.46,0-.63-.46-.64-3.61-.06-7.21-.14-10.82-.21a.88.88,0,0,0-.26.06l-.12.79ZM9.64,27.85h5.93L15.51,27l-6-.21ZM31.93,56.28H32a.31.31,0,0,0,.05-.12q.09-4.23.15-8.47A1.71,1.71,0,0,0,32,47.1l-.07.06Zm-11.11.11h.23V47.11a1,1,0,0,0-.32.7c0,1.34.07,2.68.09,4C20.83,53.35,20.82,54.87,20.82,56.39Z"/><path d="M26.18,21.61l1.93,1.65L45.42,37.77c.22.19.47.36.7.54,1.13.83,1.13.83,1.15,2.34a.91.91,0,0,1-.22-.09c-4.15-3.64-8.29-7.29-12.46-10.91C32,27.4,29.39,25.21,26.81,23c-.49-.42-.83-.48-1.34,0Q16.32,31.13,7.15,39.3c-.56.5-1,1.1-1.61,1.58a2.19,2.19,0,0,1,.79-2.09c3.86-3.2,7.64-6.51,11.43-9.8,2.63-2.29,5.24-4.61,7.86-6.91Z"/><path d="M33.17,47.21c-2-1.78-4.1-3.55-6.12-5.36a.88.88,0,0,0-1.4,0c-1.86,1.75-3.75,3.47-5.64,5.19l-.25.22c-.36-.64-.17-1,.38-1.39,1.81-1.42,3.54-3,5.29-4.44l.91-.8.54.42c2.08,1.68,4.16,3.34,6.21,5,.23.19.2.69.29,1Z"/><path d="M32.16,58.26H20.5l.12-.79a.88.88,0,0,1,.26-.06c3.61.07,7.21.15,10.82.21C32.2,57.63,32.29,57.8,32.16,58.26Z"/><path d="M31.93,56.28V47.16L32,47.1a1.71,1.71,0,0,1,.24.59q-.06,4.25-.15,8.47a.31.31,0,0,1-.05.12Z"/><path d="M20.82,56.39c0-1.52,0-3,0-4.56,0-1.34-.08-2.68-.09-4a1,1,0,0,1,.32-.7v9.27Z"/><path d="M14.34,53.37l-3.27-.19a.71.71,0,0,1-.73-.81l.12-5a1,1,0,0,1,1.11-1.11c1.75-.06,3.5-.1,5.26-.13.46,0,.77.19.78.73,0,1.91.1,3.82.15,5.73,0,.54-.3.79-.82.79h-2.6Zm2.36-6.22H11.43v5.08H16.7Z"/><path d="M38.91,53.37l-3.27-.19a.65.65,0,0,1-.69-.69L35,47.3c0-.77.5-1.07,1.2-1.1l3.35-.1c.59,0,1.18,0,1.78,0s.82.19.84.75c0,1.89.12,3.78.15,5.67,0,.54-.29.83-.85.83h-2.6Zm2.34-6.21H35.89l.2,5.05h4.67c.35,0,.49-.13.49-.48Z"/><path d="M22.59,34.58c.06-1,.14-2,.18-3.07a.7.7,0,0,1,.78-.75c1.68,0,3.37.07,5.05.13A1,1,0,0,1,29.68,32c0,1.73.08,3.46.11,5.19a.58.58,0,0,1-.61.67c-1.91,0-3.82,0-5.73.09-.58,0-.81-.2-.82-.73v-2.6Zm1.14-2.75v5h5v-5Z"/><path d="M55.65,44.66h-.47c-1.48,0-1.79-.4-1.39-1.83a1,1,0,0,1,.66-.54,14.66,14.66,0,0,1,2.39,0c.19,0,.37.31.55.49a.42.42,0,0,1,0,.13C57.75,44.5,57.62,44.64,55.65,44.66ZM56.82,44l.1-1H54.26l.11,1Z"/><path d="M50.69,44.66h-.48c-1.49,0-1.83-.48-1.37-1.89a.9.9,0,0,1,.64-.48,15.9,15.9,0,0,1,2.39,0,.76.76,0,0,1,.53.49c.27,1.6.5,1.82-1.37,1.89h-.34Zm-1.29-.75h2.46l.1-1H49.28Z"/><path d="M65.76,42.22H66c1.39,0,1.76.4,1.6,1.8,0,.18-.28.48-.44.49a26.94,26.94,0,0,1-3,0c-.16,0-.3-.4-.45-.62,0,0,0,0,0-.07C63.76,42.27,63.84,42.21,65.76,42.22Zm1.19.7H64.26l.16,1h2.45Z"/><path d="M60.71,42.22h.2c1.37,0,1.77.44,1.58,1.81a.72.72,0,0,1-.51.5,22.59,22.59,0,0,1-2.85,0c-.18,0-.33-.42-.5-.65,0,0,0,0,0-.06C58.69,42.28,58.78,42.21,60.71,42.22Zm-1.51.69.16,1H61.8l.08-1Z"/></svg>